<svg width="10" height="11" viewBox="0 0 10 11" fill="none" xmlns="http://www.w3.org/2000/svg">
<path fill-rule="evenodd" clip-rule="evenodd" d="M9.81044 1.60388C9.87049 1.54391 9.91813 1.4727 9.95065 1.39431C9.98318 1.31593 9.99995 1.2319 10 1.14704C10.0001 1.06217 9.98339 0.978126 9.95096 0.8997C9.91853 0.821275 9.87098 0.750004 9.811 0.689958C9.75103 0.629912 9.67982 0.582266 9.60144 0.549742C9.52305 0.517217 9.43903 0.500449 9.35417 0.500397C9.2693 0.500345 9.18526 0.517009 9.10683 0.549437C9.02841 0.581866 8.95714 0.629424 8.89709 0.689396L4.99992 4.58664L1.10386 0.689396C0.982598 0.568128 0.818126 0.5 0.646629 0.5C0.475132 0.5 0.31066 0.568128 0.189393 0.689396C0.0681267 0.810665 1.27775e-09 0.97514 0 1.14664C-1.27775e-09 1.31814 0.0681267 1.48261 0.189393 1.60388L4.08657 5.5L0.189393 9.39612C0.129348 9.45616 0.0817177 9.52745 0.0492216 9.6059C0.0167255 9.68436 0 9.76844 0 9.85336C0 9.93828 0.0167255 10.0224 0.0492216 10.1008C0.0817177 10.1793 0.129348 10.2506 0.189393 10.3106C0.31066 10.4319 0.475132 10.5 0.646629 10.5C0.731545 10.5 0.81563 10.4833 0.894083 10.4508C0.972536 10.4183 1.04382 10.3706 1.10386 10.3106L4.99992 6.41336L8.89709 10.3106C9.01836 10.4317 9.18277 10.4997 9.35417 10.4996C9.52556 10.4995 9.68989 10.4313 9.811 10.31C9.93212 10.1888 10.0001 10.0244 10 9.85296C9.99989 9.68157 9.93171 9.51724 9.81044 9.39612L5.91327 5.5L9.81044 1.60388Z" fill="#92B2C8"/>
</svg>
