<svg xmlns="http://www.w3.org/2000/svg" width="61" height="64" viewBox="0 0 61 64" fill="none">
  <g filter="url(#filter0_d_170_938)">
    <rect width="41" height="64" transform="translate(20)" fill="#FCFCFC"/>
    <path d="M43.8992 32.2923L33.2533 43.3129C33.0123 43.5625 32.8769 43.9009 32.8769 44.2539C32.8769 44.6068 33.0123 44.9453 33.2533 45.1949C33.4944 45.4444 33.8213 45.5846 34.1621 45.5846C34.503 45.5846 34.8298 45.4444 35.0709 45.1949L46.6229 33.2333C46.7424 33.1098 46.8373 32.9632 46.902 32.8017C46.9667 32.6402 47 32.4671 47 32.2923C47 32.1175 46.9667 31.9444 46.902 31.7829C46.8373 31.6215 46.7424 31.4748 46.6229 31.3513L35.0709 19.3898C34.8298 19.1402 34.503 19 34.1621 19C33.8213 19 33.4944 19.1402 33.2533 19.3898C33.0123 19.6393 32.8769 19.9778 32.8769 20.3307C32.8769 20.6837 33.0123 21.0222 33.2533 21.2717L43.8992 32.2923Z" fill="#98A5B8"/>
  </g>
  <defs>
    <filter id="filter0_d_170_938" x="0" y="-16" width="81" height="104" filterUnits="userSpaceOnUse" color-interpolation-filters="sRGB">
      <feFlood flood-opacity="0" result="BackgroundImageFix"/>
      <feColorMatrix in="SourceAlpha" type="matrix" values="0 0 0 0 0 0 0 0 0 0 0 0 0 0 0 0 0 0 127 0" result="hardAlpha"/>
      <feOffset dy="4"/>
      <feGaussianBlur stdDeviation="10"/>
      <feComposite in2="hardAlpha" operator="out"/>
      <feColorMatrix type="matrix" values="0 0 0 0 0 0 0 0 0 0 0 0 0 0 0 0 0 0 0.1 0"/>
      <feBlend mode="normal" in2="BackgroundImageFix" result="effect1_dropShadow_170_938"/>
      <feBlend mode="normal" in="SourceGraphic" in2="effect1_dropShadow_170_938" result="shape"/>
    </filter>
  </defs>
</svg>